# 3ds Max Wavefront OBJ Exporter v0.99 - (c)2007 guruware
# File Created: 21.05.2024 22:02:15

mtllib tronco.mtl

#
# object Log_5
#

v  -0.0185 0.6323 0.8295
v  0.1554 0.4136 2.0252
v  0.1628 0.4419 0.9111
v  0.1504 0.2476 1.9101
v  0.2041 0.2161 0.8393
v  0.0262 0.0000 1.8676
v  0.0307 0.0159 0.8623
v  -0.2159 0.0000 1.8577
v  -0.2269 0.0340 0.8599
v  -0.3842 0.1640 1.8799
v  -0.4404 0.1665 0.9124
v  -0.3824 0.4246 1.7050
v  -0.2065 0.5292 1.9381
v  -0.2803 0.5817 0.8648
v  0.0622 0.6253 1.9856
v  -0.2338 0.5814 -1.8134
v  0.0428 0.5563 -0.8037
v  0.0531 0.6189 -1.7789
v  -0.2148 0.6079 -0.8793
v  0.1830 0.6238 -0.3474
v  -0.1180 0.5756 -0.2847
v  -0.3945 0.4275 -1.7696
v  -0.3854 0.4162 -0.8664
v  -0.2737 0.4515 -0.3427
v  -0.3635 0.1625 -1.6524
v  -0.3262 0.2189 -0.9427
v  -0.2416 0.0942 -0.3193
v  -0.4006 0.3962 0.8724
v  -0.1949 0.0679 -1.7463
v  -0.2152 0.0020 -0.8761
v  -0.0633 -0.0141 -0.3050
v  -0.0121 0.0000 -1.7820
v  -0.0357 0.0623 -0.8442
v  0.1402 0.0076 -0.3685
v  0.1495 0.1322 -1.8194
v  0.2995 0.1973 -0.7848
v  0.3428 0.1366 -0.3879
v  0.2763 0.4061 -1.7061
v  0.1324 0.3409 -0.9081
v  0.3503 0.4457 -0.4410
v  -0.3795 0.3810 1.8887
v  0.0280 0.5771 1.9713
v  0.1063 0.3992 2.0045
v  -0.3429 0.3719 1.8898
v  -0.3453 0.4085 1.7356
v  -0.3469 0.1897 1.8825
v  -0.2055 0.0519 1.8638
v  -0.1976 0.4964 1.9313
v  -0.0022 0.0519 1.8722
v  -0.3362 0.4551 1.9023
v  -0.3065 0.4341 1.9013
v  0.1021 0.2598 1.9079
v  -0.3453 0.4066 1.6872
v  -0.3065 0.4316 1.6872
v  -0.0022 0.0579 1.6872
v  -0.2055 0.0579 1.6872
v  0.0280 0.5715 1.6872
v  0.1063 0.3976 1.6872
v  -0.3429 0.3708 1.6872
v  -0.3469 0.1926 1.6872
v  0.1021 0.2612 1.6872
v  -0.1976 0.4926 1.6872
v  -0.2098 0.5343 -1.8042
v  -0.3436 0.4061 -1.7677
v  -0.0251 0.0501 -1.7781
v  0.0086 0.1272 -2.0061
v  -0.0691 0.0636 -1.9881
v  -0.3178 0.1854 -1.6702
v  -0.1569 0.0962 -1.9709
v  -0.1670 0.0739 -1.9698
v  0.1095 0.1602 -1.8093
v  0.2151 0.3883 -1.7149
v  -0.1774 0.1066 -1.7483
v  0.0291 0.5656 -1.7755
v  -0.2098 0.5343 -1.6296
v  -0.3436 0.4061 -1.6296
v  -0.3178 0.1854 -1.6296
v  -0.1774 0.1066 -1.6296
v  -0.0251 0.0501 -1.6296
v  0.1095 0.1602 -1.6296
v  0.2151 0.3883 -1.6296
v  0.0291 0.5656 -1.6296
v  0.2618 0.5091 -0.2899
v  0.4611 0.6108 -0.1236
v  0.2682 0.4603 -0.2557
v  0.4427 0.5958 -0.0662
v  0.2467 0.4457 -0.2159
v  0.4012 0.6064 -0.0349
v  0.2043 0.4600 -0.1796
v  0.3660 0.6489 -0.0330
v  0.1805 0.5082 -0.1663
v  0.3550 0.6928 -0.0641
v  0.1614 0.5476 -0.1983
v  0.3764 0.7129 -0.1108
v  0.1859 0.5696 -0.2516
v  0.4081 0.6918 -0.1491
v  0.2243 0.5522 -0.2913
v  0.4489 0.6527 -0.1443
v  0.4938 0.7292 0.0757
v  0.4782 0.7072 0.0888
v  0.4158 0.7015 0.0812
v  0.3930 0.7284 0.0548
v  0.4463 0.7647 0.0409
v  0.4744 0.7543 0.0543
v  0.4416 0.6946 0.0955
v  0.4187 0.7594 0.0471
v  0.4461 0.7574 0.0465
v  0.4683 0.7492 0.0570
v  0.4040 0.7287 0.0574
v  0.4243 0.7532 0.0513
v  0.4424 0.7020 0.0896
v  0.4220 0.7074 0.0782
v  0.4836 0.7293 0.0739
v  0.4713 0.7120 0.0843
v  0.4237 0.6999 0.0560
v  0.4049 0.7248 0.0460
v  0.4733 0.7033 0.0587
v  0.4447 0.6920 0.0603
v  0.4693 0.7448 0.0442
v  0.4852 0.7223 0.0532
v  0.4467 0.7548 0.0390
v  0.4252 0.7491 0.0393
v  -0.3953 0.2928 0.8129
v  -0.7652 0.2234 1.0479
v  -0.3789 0.3823 0.9053
v  -0.7320 0.2205 1.1580
v  -0.3389 0.3766 0.9855
v  -0.6806 0.1710 1.2135
v  -0.2766 0.3058 1.0629
v  -0.6510 0.0790 1.2076
v  -0.2644 0.1962 1.0776
v  -0.6541 0.0081 1.1427
v  -0.2495 0.1128 1.0067
v  -0.6917 0.0011 1.0535
v  -0.3032 0.1056 0.8792
v  -0.7236 0.0636 0.9932
v  -0.3570 0.1796 0.7971
v  -0.7628 0.1538 1.0105
v  -0.7959 0.0153 1.1272
v  -0.7201 0.0750 1.0177
v  -0.7917 0.0259 1.0841
v  -0.6866 0.1585 1.1890
v  -0.6636 0.0870 1.1844
v  -0.6660 0.0319 1.1339
v  -0.7505 0.1451 1.0312
v  -0.7266 0.1970 1.1459
v  -0.6163 0.1026 1.1645
v  -0.6192 0.0473 1.1143
v  -0.6709 0.2153 1.1225
v  -0.6382 0.1745 1.1687
v  -0.7523 0.1993 1.0603
v  -0.7003 0.1616 1.0102
v  -0.7051 0.2148 1.0405
v  -0.6800 0.0882 1.0010
v  -0.6953 0.0265 1.0647
v  -0.6468 0.0424 1.0444
v  0.0316 0.1110 -2.0120
v  -0.0616 0.0348 -1.9904
v  -0.7937 0.0006 1.1193
v  -0.7783 0.0153 1.1690
v  -0.7711 0.0006 1.1731
v  -0.7895 0.0111 1.0762
v  -0.0894 0.3647 1.6872
v  -0.0648 0.3285 1.6872
v  -0.0663 0.2851 1.6872
v  -0.0934 0.2510 1.6872
v  -0.1358 0.2392 1.6872
v  -0.1309 0.3798 1.6872
v  -0.2004 0.3339 1.6872
v  -0.2019 0.2905 1.6872
v  -0.1772 0.2543 1.6872
v  -0.1733 0.3680 1.6872
v  -0.0075 0.3425 -1.6296
v  -0.0092 0.2800 -1.6296
v  -0.0546 0.2370 -1.6296
v  -0.1172 0.2387 -1.6296
v  -0.1602 0.2841 -1.6296
v  -0.1585 0.3467 -1.6296
v  -0.1130 0.3897 -1.6296
v  -0.0505 0.3880 -1.6296
v  -0.6594 0.1309 1.0838
v  -0.1333 0.3095 1.6872
v  -0.0838 0.3133 -1.6296
# 183 vertices

vn 0.7194 0.6942 0.0224
vn 0.9851 0.1659 0.0445
vn 0.7555 -0.6551 -0.0070
vn -0.0695 -0.9970 -0.0332
vn -0.5222 -0.8524 0.0281
vn -0.5854 0.8068 0.0797
vn -0.1876 0.9821 0.0190
vn -0.1368 0.9886 0.0621
vn 0.2526 0.9429 -0.2171
vn -0.1652 0.9856 -0.0354
vn -0.6928 0.7211 -0.0063
vn -0.7328 0.6625 0.1553
vn -0.6003 0.7948 -0.0889
vn -0.9936 -0.1125 0.0086
vn -0.9084 -0.3569 0.2179
vn -0.9895 -0.0960 -0.1077
vn -0.4469 -0.8896 0.0941
vn -0.8936 -0.4478 0.0317
vn -0.5172 -0.8552 -0.0333
vn -0.3605 -0.9294 -0.0787
vn 0.3348 -0.9352 -0.1155
vn 0.1238 -0.9906 0.0583
vn 0.6409 -0.7647 0.0669
vn 0.3995 -0.8822 -0.2492
vn 0.5401 -0.8399 0.0537
vn 0.9185 -0.3799 -0.1093
vn 0.6293 0.7755 0.0501
vn 0.9936 -0.0048 0.1126
vn 0.6481 0.7406 0.1774
vn 0.7229 0.5209 -0.4540
vn 0.7520 0.6506 0.1061
vn -0.9996 0.0212 0.0211
vn -0.3886 0.0010 0.9214
vn 0.2293 0.9479 0.2212
vn -0.0419 -0.0391 0.9984
vn 0.0141 -0.1202 0.9927
vn -0.0917 -0.2237 0.9703
vn -0.0406 -0.1093 0.9932
vn -0.5533 -0.7939 0.2522
vn -0.0793 -0.1300 0.9883
vn -0.1324 -0.2332 0.9634
vn -0.1792 -0.5567 0.8112
vn 0.5415 -0.8406 0.0095
vn 0.0000 0.9994 0.0340
vn -0.9118 -0.4107 0.0021
vn 0.9976 0.0693 -0.0027
vn 0.6897 0.7240 0.0110
vn -0.9995 0.0311 0.0002
vn 0.9997 -0.0225 0.0001
vn 0.3302 -0.9437 0.0186
vn -0.8897 0.4563 0.0148
vn 0.4881 -0.8727 0.0136
vn -0.0564 -0.2185 -0.9742
vn -0.5985 0.7816 0.1758
vn -0.1413 -0.4140 -0.8992
vn -0.9082 0.4058 -0.1022
vn 0.0243 0.3726 -0.9277
vn -0.4192 0.1425 -0.8966
vn 0.1808 -0.1430 -0.9731
vn 0.1344 -0.1229 -0.9833
vn 0.6919 -0.7220 0.0000
vn 0.4894 0.8720 0.0000
vn -0.6331 0.7741 0.0000
vn -0.6900 -0.7238 0.0000
vn 0.1297 -0.9916 0.0000
vn 0.9932 0.1162 0.0000
vn 0.3481 0.9375 0.0000
vn -0.9075 0.4200 0.0000
vn 0.6990 -0.3467 -0.6254
vn 0.5944 -0.8037 0.0276
vn 0.1982 -0.8108 0.5507
vn -0.3186 -0.3960 0.8612
vn -0.6699 0.2452 0.7009
vn -0.6189 0.7845 0.0389
vn -0.1957 0.8144 -0.5464
vn 0.4095 0.3291 -0.8509
vn 0.8481 -0.5027 0.1672
vn -0.8556 -0.3523 0.3792
vn 0.4880 0.7501 -0.4463
vn 0.3643 -0.8200 0.4415
vn -0.7664 0.6422 0.0165
vn 0.8620 0.3610 -0.3559
vn -0.4799 -0.6983 0.5311
vn -0.2442 0.9209 -0.3039
vn -0.1533 0.6001 0.7851
vn -0.2231 0.4063 0.8861
vn -0.2474 0.6200 0.7446
vn -0.1308 0.5753 0.8075
vn 0.0628 0.6017 0.7962
vn -0.2031 0.5914 0.7804
vn -0.0745 0.6269 0.7755
vn -0.1299 0.5816 0.8030
vn 0.8157 0.5642 -0.1280
vn -0.3616 0.8734 -0.3261
vn -0.8331 -0.5403 0.1185
vn -0.4391 -0.8604 0.2586
vn 0.7731 -0.5793 0.2583
vn 0.3846 0.8826 -0.2704
vn -0.8528 0.4701 -0.2273
vn 0.2481 -0.9108 0.3299
vn -0.4836 0.6701 -0.5632
vn -0.2817 0.9371 0.2063
vn 0.0043 0.7394 0.6733
vn 0.2713 0.1579 0.9495
vn 0.3906 -0.5552 0.7343
vn 0.2401 -0.9696 -0.0464
vn -0.0941 -0.7698 -0.6313
vn -0.4635 -0.0334 -0.8855
vn -0.4450 0.8790 0.1714
vn -0.8768 -0.3065 0.3706
vn -0.8774 -0.3024 0.3724
vn -0.8440 -0.4284 0.3227
vn -0.8221 -0.4003 0.4049
vn -0.4684 0.6078 -0.6413
vn -0.0242 -0.7574 -0.6525
vn 0.4635 -0.4077 0.7867
vn 0.3884 -0.0079 0.9214
vn -0.2934 0.9547 0.0490
vn -0.3690 -0.0590 -0.9276
vn 0.2698 -0.9569 -0.1071
vn 0.0608 0.7093 0.7023
vn -0.8745 -0.2523 0.4143
vn -0.2369 0.0146 -0.9714
vn -0.1809 0.0300 -0.9830
vn 0.4656 0.8024 -0.3734
vn -0.3592 -0.9306 -0.0700
vn 0.3461 0.9381 -0.0118
vn 0.5728 -0.7755 -0.2654
vn -0.9015 -0.3445 0.2618
vn -0.8724 -0.3230 0.3670
vn -0.1292 0.9901 0.0555
vn 0.2134 0.3582 0.9089
vn 0.0028 -1.0000 -0.0023
vn -0.7418 0.2297 -0.6301
vn -0.9899 -0.0812 -0.1164
vn -0.2244 -0.7338 -0.6412
vn 0.9176 0.3926 -0.0617
vn 0.9994 -0.0344 0.0057
vn 0.8884 -0.4554 0.0579
vn 0.0006 -0.9999 -0.0159
vn -0.6988 -0.7151 -0.0166
vn -0.8389 0.5443 -0.0002
vn -0.4924 0.8702 -0.0189
vn -0.3469 0.9353 0.0695
vn 0.2053 0.9782 -0.0319
vn -0.1420 0.9869 0.0767
vn -0.1942 0.9804 -0.0326
vn -0.7464 0.6653 0.0158
vn -0.6401 0.7635 0.0850
vn -0.8384 0.5414 -0.0629
vn -0.9468 -0.3130 0.0746
vn -0.9897 -0.0812 0.1181
vn -0.9762 0.1401 -0.1658
vn -0.8816 -0.4687 -0.0560
vn -0.5227 -0.8447 0.1151
vn -0.5340 -0.8445 -0.0401
vn 0.3065 -0.9493 0.0708
vn 0.0627 -0.9886 -0.1370
vn -0.0699 -0.9976 0.0006
vn 0.3729 -0.9279 0.0043
vn 0.5154 -0.8369 -0.1842
vn 0.7570 -0.6410 0.1271
vn 0.5680 0.8056 0.1683
vn 0.9102 -0.0915 -0.4040
vn 0.9813 0.1360 0.1365
vn 0.9285 0.3699 0.0335
vn 0.6134 0.7319 -0.2968
vn 0.6949 0.7101 0.1138
vn -0.9848 0.1732 0.0156
vn -0.9973 0.0459 0.0580
vn 0.0140 -0.1202 0.9927
vn 0.4427 -0.8960 0.0346
vn -0.0013 0.9995 0.0325
vn -0.9157 -0.4018 0.0079
vn 0.9978 0.0663 -0.0003
vn 0.6992 0.7145 0.0243
vn -0.9995 0.0306 -0.0002
vn 0.9998 -0.0220 -0.0003
vn 0.3345 -0.9423 0.0147
vn -0.8941 0.4479 0.0029
vn 0.4943 -0.8692 0.0099
vn 0.6790 -0.1578 -0.7170
vn 0.6185 -0.7858 -0.0075
vn 0.2044 -0.8121 0.5465
vn -0.3729 -0.3485 0.8599
vn -0.6942 0.2920 0.6578
vn -0.6218 0.7814 0.0518
vn -0.1703 0.7965 -0.5802
vn 0.4112 0.3259 -0.8513
vn 0.8606 -0.4872 0.1481
vn -0.9226 0.0403 0.3837
vn 0.6618 0.6457 -0.3808
vn 0.1995 -0.8167 0.5415
vn -0.6849 0.7287 0.0003
vn 0.9616 0.1738 -0.2124
vn -0.6245 -0.5433 0.5610
vn 0.2156 0.9196 -0.3285
vn -0.2474 0.6199 0.7446
vn -0.1308 0.5753 0.8074
vn 0.0628 0.6018 0.7962
vn -0.2030 0.5914 0.7804
vn 0.3846 0.8826 -0.2705
vn -0.5456 0.3827 -0.7455
vn -0.3369 0.9330 0.1266
vn -0.0033 0.7451 0.6670
vn 0.3351 0.0472 0.9410
vn 0.4124 -0.6250 0.6628
vn 0.2423 -0.9699 -0.0262
vn -0.1137 -0.7196 -0.6850
vn -0.4636 -0.0317 -0.8855
vn 0.2958 0.7374 0.6072
vn 0.3884 -0.0079 0.9215
vn -0.8745 -0.2523 0.4142
vn -0.1253 0.9918 -0.0249
vn 0.2111 0.4284 0.8786
vn 0.0758 -0.9961 0.0462
vn -0.7464 0.6380 -0.1895
vn -0.9899 -0.0813 -0.1164
vn -0.1563 -0.9558 -0.2489
vn -0.0000 0.0000 1.0000
vn 0.0000 0.0000 -1.0000
vn -0.0743 0.3216 0.9439
vn -0.8827 -0.2902 0.3696
# 223 vertex normals

vt 0.0000 0.0000 0.0000
vt 1.0000 1.0000 0.0000
vt 0.0000 1.0000 0.0000
vt 0.9755 0.6545 0.0000
vt 0.2061 0.0955 0.0000
vt 0.0245 0.6545 0.0000
vt 0.7939 0.0955 0.0000
vt 1.0000 0.0000 0.0000
vt 0.5000 1.0000 0.0000
vt 0.1464 0.1464 0.0000
vt 0.0000 0.5000 0.0000
vt 0.1464 0.8536 0.0000
vt 0.8536 0.8536 0.0000
vt 0.5000 0.0000 0.0000
vt 1.0000 0.5000 0.0000
vt 0.8536 0.1464 0.0000
# 16 texture coords

o Log_5
g Log_5
usemtl 20___Default
s off
f 1/1/1 2/2/1 3/3/1 
f 3/1/2 4/2/2 5/3/2 
f 5/1/3 6/2/3 7/3/3 
f 7/1/4 8/2/4 9/3/4 
f 9/1/5 10/2/5 11/3/5 
f 12/4/6 13/5/6 14/6/6 
f 14/1/7 15/2/7 1/3/7 
f 16/1/8 17/2/8 18/3/8 
f 19/1/9 20/2/9 17/3/9 
f 21/1/10 1/2/10 20/3/10 
f 22/1/11 19/2/11 16/3/11 
f 23/1/12 21/2/12 19/3/12 
f 24/1/13 14/2/13 21/3/13 
f 25/1/14 23/2/14 22/3/14 
f 26/1/15 24/2/15 23/3/15 
f 27/1/16 28/2/16 24/3/16 
f 29/1/17 26/2/17 25/3/17 
f 30/1/18 27/2/18 26/3/18 
f 31/1/19 11/2/19 27/3/19 
f 32/1/20 30/2/20 29/3/20 
f 33/1/21 31/2/21 30/3/21 
f 34/1/22 9/2/22 31/3/22 
f 35/1/23 33/2/23 32/3/23 
f 36/1/24 34/2/24 33/3/24 
f 37/1/25 7/2/25 34/3/25 
f 38/1/26 36/2/26 35/3/26 
f 39/1/27 37/2/27 36/3/27 
f 40/1/28 5/2/28 37/3/28 
f 18/1/29 39/2/29 38/3/29 
f 17/1/30 40/2/30 39/3/30 
f 20/1/31 3/2/31 40/3/31 
f 10/4/32 41/7/32 12/5/32 
f 2/1/33 42/2/33 43/3/33 
f 12/1/34 44/2/34 45/3/34 
f 41/1/35 46/2/35 44/3/35 
f 10/1/36 47/2/36 46/3/36 
f 15/1/37 48/2/37 42/3/37 
f 8/1/38 49/2/38 47/3/38 
f 50/1/39 45/2/39 51/3/39 
f 6/1/40 52/2/40 49/3/40 
f 13/1/41 51/2/41 48/3/41 
f 4/1/42 43/2/42 52/3/42 
f 51/1/43 53/2/43 54/3/43 
f 47/1/44 55/2/44 56/3/44 
f 43/1/45 57/2/45 58/3/45 
f 45/1/46 59/2/46 53/3/46 
f 46/1/47 56/2/47 60/3/47 
f 52/1/48 58/2/48 61/3/48 
f 44/1/49 60/2/49 59/3/49 
f 42/1/50 62/2/50 57/3/50 
f 49/1/51 61/2/51 55/3/51 
f 48/1/52 54/2/52 62/3/52 
f 22/1/53 63/2/53 64/3/53 
f 65/1/54 66/2/54 67/3/54 
f 25/1/55 64/2/55 68/3/55 
f 29/1/56 69/2/56 70/3/56 
f 38/1/57 71/2/57 72/3/57 
f 29/1/58 68/2/58 73/3/58 
f 18/1/59 72/2/59 74/3/59 
f 16/1/60 74/2/60 63/3/60 
f 64/1/61 75/2/61 76/3/61 
f 73/1/62 77/2/62 78/3/62 
f 71/1/63 79/2/63 80/3/63 
f 74/1/64 81/2/64 82/3/64 
f 63/1/65 82/2/65 75/3/65 
f 68/1/66 76/2/66 77/3/66 
f 65/1/67 78/2/67 79/3/67 
f 72/1/68 80/2/68 81/3/68 
f 83/1/69 84/2/69 85/3/69 
f 85/1/70 86/2/70 87/3/70 
f 87/1/71 88/2/71 89/3/71 
f 89/1/72 90/2/72 91/3/72 
f 91/1/73 92/2/73 93/3/73 
f 93/1/74 94/2/74 95/3/74 
f 95/1/75 96/2/75 97/3/75 
f 97/1/76 98/2/76 83/3/76 
f 86/1/77 99/2/77 100/3/77 
f 92/1/78 101/2/78 102/3/78 
f 98/1/79 103/2/79 104/3/79 
f 88/1/80 100/2/80 105/3/80 
f 94/1/81 102/2/81 106/3/81 
f 84/1/82 104/2/82 99/3/82 
f 90/1/83 105/2/83 101/3/83 
f 96/1/84 106/2/84 103/3/84 
f 104/1/85 107/2/85 108/3/85 
f 106/1/86 109/2/86 110/3/86 
f 101/1/87 111/2/87 112/3/87 
f 100/1/88 113/2/88 114/3/88 
f 103/1/89 110/2/89 107/3/89 
f 102/1/90 112/2/90 109/3/90 
f 105/1/91 114/2/91 111/3/91 
f 99/1/92 108/2/92 113/3/92 
f 109/1/93 115/2/93 116/3/93 
f 111/1/94 117/2/94 118/3/94 
f 113/1/95 119/2/95 120/3/95 
f 108/1/96 121/2/96 119/3/96 
f 110/1/97 116/2/97 122/3/97 
f 112/1/98 118/2/98 115/3/98 
f 114/1/99 120/2/99 117/3/99 
f 107/1/100 122/2/100 121/3/100 
f 123/1/101 124/2/101 125/3/101 
f 125/1/102 126/2/102 127/3/102 
f 127/1/103 128/2/103 129/3/103 
f 129/1/104 130/2/104 131/3/104 
f 131/1/105 132/2/105 133/3/105 
f 133/1/106 134/2/106 135/3/106 
f 135/1/107 136/2/107 137/3/107 
f 137/1/108 138/2/108 123/3/108 
f 139/1/109 140/2/109 141/3/109 
f 130/1/110 142/2/110 143/3/110 
f 132/1/111 143/2/111 144/3/111 
f 138/1/112 140/2/112 145/3/112 
f 128/1/113 146/2/113 142/3/113 
f 144/1/114 147/2/114 148/3/114 
f 142/1/115 149/2/115 150/3/115 
f 151/1/116 152/2/116 153/3/116 
f 145/1/117 154/2/117 152/3/117 
f 155/1/118 148/2/118 156/3/118 
f 143/1/119 150/2/119 147/3/119 
f 146/1/120 153/2/120 149/3/120 
f 140/1/121 156/2/121 154/3/121 
f 124/1/122 145/2/122 151/3/122 
f 157/1/123 67/2/123 66/3/123 
f 158/1/124 69/2/124 67/3/124 
f 71/1/125 157/2/125 66/3/125 
f 32/1/126 70/2/126 158/3/126 
f 73/1/127 67/2/127 69/3/127 
f 35/1/128 158/2/128 157/3/128 
f 126/1/129 151/2/129 146/3/129 
f 159/1/130 160/2/130 139/3/130 
f 144/1/131 139/2/131 160/3/131 
f 132/1/132 160/2/132 161/3/132 
f 134/1/133 161/2/133 159/3/133 
f 140/1/134 162/2/134 141/3/134 
f 159/1/135 141/2/135 162/3/135 
f 134/1/136 162/2/136 136/3/136 
f 1/1/137 15/8/137 2/2/137 
f 3/1/138 2/8/138 4/2/138 
f 5/1/139 4/8/139 6/2/139 
f 7/1/140 6/8/140 8/2/140 
f 9/1/141 8/8/141 10/2/141 
f 14/6/142 28/9/142 12/4/142 
f 12/4/143 50/7/143 13/5/143 
f 14/1/144 13/8/144 15/2/144 
f 16/1/145 19/8/145 17/2/145 
f 19/1/146 21/8/146 20/2/146 
f 21/1/147 14/8/147 1/2/147 
f 22/1/148 23/8/148 19/2/148 
f 23/1/149 24/8/149 21/2/149 
f 24/1/150 28/8/150 14/2/150 
f 25/1/151 26/8/151 23/2/151 
f 26/1/152 27/8/152 24/2/152 
f 27/1/153 11/8/153 28/2/153 
f 29/1/154 30/8/154 26/2/154 
f 30/1/155 31/8/155 27/2/155 
f 31/1/156 9/8/156 11/2/156 
f 32/1/157 33/8/157 30/2/157 
f 33/1/158 34/8/158 31/2/158 
f 34/1/159 7/8/159 9/2/159 
f 35/1/160 36/8/160 33/2/160 
f 36/1/161 37/8/161 34/2/161 
f 37/1/162 5/8/162 7/2/162 
f 38/1/163 39/8/163 36/2/163 
f 39/1/164 40/8/164 37/2/164 
f 40/1/165 3/8/165 5/2/165 
f 18/1/166 17/8/166 39/2/166 
f 17/1/167 20/8/167 40/2/167 
f 20/1/168 1/8/168 3/2/168 
f 28/6/169 11/9/169 12/5/169 
f 11/9/170 10/4/170 12/5/170 
f 2/1/33 15/8/33 42/2/33 
f 12/1/34 41/8/34 44/2/34 
f 41/1/35 10/8/35 46/2/35 
f 10/1/171 8/8/171 47/2/171 
f 15/1/37 13/8/37 48/2/37 
f 8/1/38 6/8/38 49/2/38 
f 50/1/39 12/8/39 45/2/39 
f 6/1/40 4/8/40 52/2/40 
f 13/1/41 50/8/41 51/2/41 
f 4/1/42 2/8/42 43/2/42 
f 51/1/172 45/8/172 53/2/172 
f 47/1/173 49/8/173 55/2/173 
f 43/1/174 42/8/174 57/2/174 
f 45/1/175 44/8/175 59/2/175 
f 46/1/176 47/8/176 56/2/176 
f 52/1/177 43/8/177 58/2/177 
f 44/1/178 46/8/178 60/2/178 
f 42/1/179 48/8/179 62/2/179 
f 49/1/180 52/8/180 61/2/180 
f 48/1/181 51/8/181 54/2/181 
f 22/1/53 16/8/53 63/2/53 
f 65/1/54 71/8/54 66/2/54 
f 25/1/55 22/8/55 64/2/55 
f 29/1/56 73/8/56 69/2/56 
f 38/1/57 35/8/57 71/2/57 
f 29/1/58 25/8/58 68/2/58 
f 18/1/59 38/8/59 72/2/59 
f 16/1/60 18/8/60 74/2/60 
f 64/1/61 63/8/61 75/2/61 
f 73/1/62 68/8/62 77/2/62 
f 71/1/63 65/8/63 79/2/63 
f 74/1/64 72/8/64 81/2/64 
f 63/1/65 74/8/65 82/2/65 
f 68/1/66 64/8/66 76/2/66 
f 65/1/67 73/8/67 78/2/67 
f 72/1/68 71/8/68 80/2/68 
f 83/1/182 98/8/182 84/2/182 
f 85/1/183 84/8/183 86/2/183 
f 87/1/184 86/8/184 88/2/184 
f 89/1/185 88/8/185 90/2/185 
f 91/1/186 90/8/186 92/2/186 
f 93/1/187 92/8/187 94/2/187 
f 95/1/188 94/8/188 96/2/188 
f 97/1/189 96/8/189 98/2/189 
f 86/1/190 84/8/190 99/2/190 
f 92/1/191 90/8/191 101/2/191 
f 98/1/192 96/8/192 103/2/192 
f 88/1/193 86/8/193 100/2/193 
f 94/1/194 92/8/194 102/2/194 
f 84/1/195 98/8/195 104/2/195 
f 90/1/196 88/8/196 105/2/196 
f 96/1/197 94/8/197 106/2/197 
f 104/1/85 103/8/85 107/2/85 
f 106/1/86 102/8/86 109/2/86 
f 101/1/198 105/8/198 111/2/198 
f 100/1/199 99/8/199 113/2/199 
f 103/1/200 106/8/200 110/2/200 
f 102/1/201 101/8/201 112/2/201 
f 105/1/91 100/8/91 114/2/91 
f 99/1/92 104/8/92 108/2/92 
f 109/1/93 112/8/93 115/2/93 
f 111/1/94 114/8/94 117/2/94 
f 113/1/95 108/8/95 119/2/95 
f 108/1/96 107/8/96 121/2/96 
f 110/1/97 109/8/97 116/2/97 
f 112/1/202 111/8/202 118/2/202 
f 114/1/99 113/8/99 120/2/99 
f 107/1/100 110/8/100 122/2/100 
f 123/1/203 138/8/203 124/2/203 
f 125/1/204 124/8/204 126/2/204 
f 127/1/205 126/8/205 128/2/205 
f 129/1/206 128/8/206 130/2/206 
f 131/1/207 130/8/207 132/2/207 
f 133/1/208 132/8/208 134/2/208 
f 135/1/209 134/8/209 136/2/209 
f 137/1/210 136/8/210 138/2/210 
f 139/1/211 155/8/211 140/2/211 
f 130/1/110 128/8/110 142/2/110 
f 132/1/111 130/8/111 143/2/111 
f 138/1/112 136/8/112 140/2/112 
f 128/1/113 126/8/113 146/2/113 
f 144/1/114 143/8/114 147/2/114 
f 142/1/115 146/8/115 149/2/115 
f 151/1/116 145/8/116 152/2/116 
f 145/1/212 140/8/212 154/2/212 
f 155/1/118 144/8/118 148/2/118 
f 143/1/119 142/8/119 150/2/119 
f 146/1/120 151/8/120 153/2/120 
f 140/1/121 155/8/121 156/2/121 
f 124/1/213 138/8/213 145/2/213 
f 157/1/123 158/8/123 67/2/123 
f 158/1/124 70/8/124 69/2/124 
f 71/1/125 35/8/125 157/2/125 
f 32/1/126 29/8/126 70/2/126 
f 73/1/127 65/8/127 67/2/127 
f 35/1/128 32/8/128 158/2/128 
f 126/1/129 124/8/129 151/2/129 
f 159/1/130 161/8/130 160/2/130 
f 144/1/214 155/8/214 139/2/214 
f 132/1/215 144/8/215 160/2/215 
f 134/1/216 132/8/216 161/2/216 
f 140/1/217 136/8/217 162/2/217 
f 159/1/218 139/8/218 141/2/218 
f 134/1/219 159/8/219 162/2/219 
f 163/1/220 58/2/220 57/3/220 
f 164/1/220 61/2/220 58/3/220 
f 165/1/220 55/2/220 61/3/220 
f 166/1/220 56/2/220 55/3/220 
f 167/1/220 60/2/220 56/3/220 
f 168/1/220 57/2/220 62/3/220 
f 169/1/220 54/2/220 53/3/220 
f 170/1/220 53/2/220 59/3/220 
f 171/1/220 59/2/220 60/3/220 
f 172/1/220 62/2/220 54/3/220 
f 173/1/221 82/2/221 81/3/221 
f 174/1/221 81/2/221 80/3/221 
f 175/1/221 80/2/221 79/3/221 
f 176/1/221 79/2/221 78/3/221 
f 177/1/221 78/2/221 77/3/221 
f 178/1/221 77/2/221 76/3/221 
f 179/1/221 76/2/221 75/3/221 
f 180/1/221 75/2/221 82/3/221 
f 118/10/222 117/11/222 119/9/222 
f 181/1/223 153/8/223 152/2/223 
f 181/1/223 149/8/223 153/2/223 
f 181/1/223 150/8/223 149/2/223 
f 181/1/223 147/8/223 150/2/223 
f 181/1/223 148/8/223 147/2/223 
f 181/1/223 156/8/223 148/2/223 
f 181/1/223 154/8/223 156/2/223 
f 181/1/223 152/8/223 154/2/223 
f 163/1/220 164/8/220 58/2/220 
f 164/1/220 165/8/220 61/2/220 
f 165/1/220 166/8/220 55/2/220 
f 166/1/220 167/8/220 56/2/220 
f 167/1/220 171/8/220 60/2/220 
f 168/1/220 163/8/220 57/2/220 
f 169/1/220 172/8/220 54/2/220 
f 170/1/220 169/8/220 53/2/220 
f 171/1/220 170/8/220 59/2/220 
f 172/1/220 168/8/220 62/2/220 
f 173/1/221 180/8/221 82/2/221 
f 174/1/221 173/8/221 81/2/221 
f 175/1/221 174/8/221 80/2/221 
f 176/1/221 175/8/221 79/2/221 
f 177/1/221 176/8/221 78/2/221 
f 178/1/221 177/8/221 77/2/221 
f 179/1/221 178/8/221 76/2/221 
f 180/1/221 179/8/221 75/2/221 
f 120/12/222 119/9/222 117/11/222 
f 119/9/222 121/13/222 115/14/222 
f 118/10/222 119/9/222 115/14/222 
f 121/13/222 122/15/222 115/14/222 
f 122/15/222 116/16/222 115/14/222 
f 182/1/220 164/8/220 163/2/220 
f 182/1/220 165/8/220 164/2/220 
f 182/1/220 166/8/220 165/2/220 
f 182/1/220 167/8/220 166/2/220 
f 182/1/220 171/8/220 167/2/220 
f 182/1/220 163/8/220 168/2/220 
f 182/1/220 172/8/220 169/2/220 
f 182/1/220 169/8/220 170/2/220 
f 182/1/220 170/8/220 171/2/220 
f 182/1/220 168/8/220 172/2/220 
f 183/1/221 180/8/221 173/2/221 
f 183/1/221 173/8/221 174/2/221 
f 183/1/221 174/8/221 175/2/221 
f 183/1/221 175/8/221 176/2/221 
f 183/1/221 176/8/221 177/2/221 
f 183/1/221 177/8/221 178/2/221 
f 183/1/221 178/8/221 179/2/221 
f 183/1/221 179/8/221 180/2/221 
# 0 polygons - 342 triangles

